<svg width="1024" height="1024" viewBox="0 0 1024 1024" fill="none" xmlns="http://www.w3.org/2000/svg">
  <defs>
    <linearGradient id="bg" x1="124" y1="96" x2="896" y2="944" gradientUnits="userSpaceOnUse">
      <stop stop-color="#140E11"/>
      <stop offset="0.5" stop-color="#24171C"/>
      <stop offset="1" stop-color="#32272B"/>
    </linearGradient>
    <radialGradient id="glow" cx="0" cy="0" r="1" gradientUnits="userSpaceOnUse" gradientTransform="translate(512 416) rotate(90) scale(334)">
      <stop stop-color="#F7E6C1"/>
      <stop offset="0.3" stop-color="#B6E2C7" stop-opacity="0.9"/>
      <stop offset="0.58" stop-color="#8CC7AF" stop-opacity="0.46"/>
      <stop offset="1" stop-color="#8CC7AF" stop-opacity="0"/>
    </radialGradient>
    <linearGradient id="brain" x1="302" y1="296" x2="708" y2="760" gradientUnits="userSpaceOnUse">
      <stop stop-color="#F0D7A9"/>
      <stop offset="0.48" stop-color="#BFDFC7"/>
      <stop offset="1" stop-color="#6FA68D"/>
    </linearGradient>
    <linearGradient id="glassArc" x1="322" y1="242" x2="714" y2="662" gradientUnits="userSpaceOnUse">
      <stop stop-color="#FFFFFF" stop-opacity="0.72"/>
      <stop offset="0.5" stop-color="#E8F3EE" stop-opacity="0.2"/>
      <stop offset="1" stop-color="#FFFFFF" stop-opacity="0.05"/>
    </linearGradient>
    <filter id="blur" x="150" y="112" width="724" height="820" filterUnits="userSpaceOnUse" color-interpolation-filters="sRGB">
      <feGaussianBlur stdDeviation="18"/>
    </filter>
    <filter id="soft" x="258" y="190" width="508" height="582" filterUnits="userSpaceOnUse" color-interpolation-filters="sRGB">
      <feGaussianBlur stdDeviation="8"/>
    </filter>
  </defs>

  <rect width="1024" height="1024" rx="224" fill="url(#bg)"/>
  <circle cx="512" cy="420" r="334" fill="url(#glow)"/>

  <g filter="url(#blur)" opacity="0.72">
    <path d="M250 534C319 437 412 381 512 381C612 381 705 437 774 534" stroke="#96D1B8" stroke-width="24" stroke-linecap="round"/>
    <path d="M308 644C367 574 438 536 512 536C586 536 657 574 716 644" stroke="#E4C594" stroke-width="18" stroke-linecap="round"/>
  </g>

  <g opacity="0.72">
    <ellipse cx="512" cy="354" rx="190" ry="92" fill="#FFFFFF" fill-opacity="0.08"/>
    <path d="M336 334C399 274 463 246 512 246C561 246 625 274 688 334" stroke="url(#glassArc)" stroke-width="24" stroke-linecap="round"/>
    <path d="M286 520C358 424 430 381 512 381C594 381 666 424 738 520" stroke="url(#glassArc)" stroke-width="16" stroke-linecap="round" opacity="0.72"/>
    <path d="M360 688C412 728 460 754 512 765C564 754 612 728 664 688" stroke="#FAFAF7" stroke-opacity="0.18" stroke-width="12" stroke-linecap="round"/>
  </g>

  <path d="M512 230C413 230 327 278 276 365C225 452 217 561 254 646C292 735 371 796 463 816C496 823 528 823 561 816C653 796 732 735 770 646C807 561 799 452 748 365C697 278 611 230 512 230Z" stroke="#F5EEE2" stroke-width="28"/>
  <path d="M512 298C458 298 409 321 375 360C341 399 325 451 331 505C336 555 361 598 402 629C384 669 381 711 393 751" stroke="url(#brain)" stroke-width="22" stroke-linecap="round"/>
  <path d="M512 298C566 298 615 321 649 360C683 399 699 451 693 505C688 555 663 598 622 629C640 669 643 711 631 751" stroke="url(#brain)" stroke-width="22" stroke-linecap="round"/>
  <path d="M512 313V764" stroke="url(#brain)" stroke-width="18" stroke-linecap="round"/>
  <path d="M414 401C447 381 479 371 512 371C545 371 577 381 610 401" stroke="url(#brain)" stroke-width="16" stroke-linecap="round"/>
  <path d="M394 497C431 473 471 461 512 461C553 461 593 473 630 497" stroke="url(#brain)" stroke-width="16" stroke-linecap="round"/>
  <path d="M408 594C440 580 474 573 512 573C550 573 584 580 616 594" stroke="url(#brain)" stroke-width="16" stroke-linecap="round"/>
  <g filter="url(#soft)">
    <circle cx="512" cy="387" r="40" fill="#F7E4BB"/>
  </g>
  <path d="M512 175L512 121" stroke="#F6E7C7" stroke-width="16" stroke-linecap="round"/>
  <path d="M452 188L432 140" stroke="#B9D7C2" stroke-width="12" stroke-linecap="round"/>
  <path d="M572 188L592 140" stroke="#B9D7C2" stroke-width="12" stroke-linecap="round"/>
  <path d="M622 228L664 191" stroke="#E6C58F" stroke-width="12" stroke-linecap="round"/>
  <path d="M402 228L360 191" stroke="#E6C58F" stroke-width="12" stroke-linecap="round"/>
</svg>
