<svg width="1024" height="1024" viewBox="0 0 1024 1024" fill="none" xmlns="http://www.w3.org/2000/svg">
  <defs>
    <linearGradient id="bg" x1="126" y1="102" x2="902" y2="946" gradientUnits="userSpaceOnUse">
      <stop stop-color="#120D10"/>
      <stop offset="0.54" stop-color="#22161A"/>
      <stop offset="1" stop-color="#30262A"/>
    </linearGradient>
    <radialGradient id="medGlow" cx="0" cy="0" r="1" gradientUnits="userSpaceOnUse" gradientTransform="translate(512 456) rotate(90) scale(318)">
      <stop stop-color="#F8E8C5" stop-opacity="0.84"/>
      <stop offset="0.34" stop-color="#C6E6D2" stop-opacity="0.26"/>
      <stop offset="1" stop-color="#C6E6D2" stop-opacity="0"/>
    </radialGradient>
    <linearGradient id="brain" x1="302" y1="296" x2="708" y2="760" gradientUnits="userSpaceOnUse">
      <stop stop-color="#F0D7A9"/>
      <stop offset="0.48" stop-color="#BFDFC7"/>
      <stop offset="1" stop-color="#6FA68D"/>
    </linearGradient>
    <linearGradient id="orbStroke" x1="308" y1="224" x2="730" y2="796" gradientUnits="userSpaceOnUse">
      <stop stop-color="#FFFFFF" stop-opacity="0.78"/>
      <stop offset="0.5" stop-color="#F5F2EB" stop-opacity="0.24"/>
      <stop offset="1" stop-color="#FFFFFF" stop-opacity="0.1"/>
    </linearGradient>
    <filter id="orbBlur" x="194" y="162" width="636" height="636" filterUnits="userSpaceOnUse" color-interpolation-filters="sRGB">
      <feGaussianBlur stdDeviation="10"/>
    </filter>
    <filter id="soft" x="250" y="150" width="524" height="660" filterUnits="userSpaceOnUse" color-interpolation-filters="sRGB">
      <feGaussianBlur stdDeviation="10"/>
    </filter>
  </defs>

  <rect width="1024" height="1024" rx="224" fill="url(#bg)"/>
  <circle cx="512" cy="512" r="286" fill="url(#medGlow)"/>

  <g filter="url(#orbBlur)">
    <circle cx="512" cy="480" r="278" fill="#FFFFFF" fill-opacity="0.06"/>
    <circle cx="512" cy="480" r="278" stroke="url(#orbStroke)" stroke-width="18"/>
    <ellipse cx="450" cy="338" rx="168" ry="88" fill="#FFFFFF" fill-opacity="0.12"/>
    <path d="M330 384C379 316 445 279 525 274" stroke="#FFFFFF" stroke-opacity="0.36" stroke-width="20" stroke-linecap="round"/>
    <path d="M622 612C592 662 552 699 502 724" stroke="#FFFFFF" stroke-opacity="0.2" stroke-width="12" stroke-linecap="round"/>
  </g>

  <path d="M512 246C422 246 343 291 296 364C248 437 241 533 274 612C309 695 381 748 465 766C495 773 529 773 559 766C643 748 715 695 750 612C783 533 776 437 728 364C681 291 602 246 512 246Z" stroke="#F4EDE3" stroke-width="26"/>
  <path d="M512 310C462 310 417 332 386 367C354 402 339 448 344 498C349 543 372 583 410 611C394 648 392 687 402 723" stroke="url(#brain)" stroke-width="20" stroke-linecap="round"/>
  <path d="M512 310C562 310 607 332 638 367C670 402 685 448 680 498C675 543 652 583 614 611C630 648 632 687 622 723" stroke="url(#brain)" stroke-width="20" stroke-linecap="round"/>
  <path d="M512 324V735" stroke="url(#brain)" stroke-width="16" stroke-linecap="round"/>
  <path d="M421 399C450 381 480 372 512 372C544 372 574 381 603 399" stroke="url(#brain)" stroke-width="14" stroke-linecap="round"/>
  <path d="M400 488C435 467 473 456 512 456C551 456 589 467 624 488" stroke="url(#brain)" stroke-width="14" stroke-linecap="round"/>
  <path d="M414 574C445 562 478 556 512 556C546 556 579 562 610 574" stroke="url(#brain)" stroke-width="14" stroke-linecap="round"/>
  <g filter="url(#soft)">
    <circle cx="512" cy="390" r="34" fill="#F6E4BB"/>
  </g>
  <path d="M512 212L512 166" stroke="#F6E8CB" stroke-width="14" stroke-linecap="round"/>
  <path d="M459 224L441 186" stroke="#BDD9C6" stroke-width="10" stroke-linecap="round"/>
  <path d="M565 224L583 186" stroke="#BDD9C6" stroke-width="10" stroke-linecap="round"/>
</svg>
